<svg xmlns="http://www.w3.org/2000/svg" viewBox="0 0 1000 1000" fill="none">
  <!-- Subtle circular/rounded background container for favicon legibility -->
  <rect width="1000" height="1000" rx="200" fill="#ffffff" fill-opacity="0.95" />
  <rect x="20" y="20" width="960" height="960" rx="180" stroke="#FFD51B" stroke-width="24" stroke-opacity="0.8" />

  <g transform="translate(75, 75) scale(0.85)">
    <!-- 1. Top-Left Purple Bracket -->
    <path
      d="M 50 60 H 540 L 350 250 H 180 V 430 L 50 300 Z"
      fill="#261653"
    />

    <!-- 2. Upper Parallel Purple Diagonal Band -->
    <path
      d="M 50 670 L 490 230 L 550 290 L 110 730 L 50 730 Z"
      fill="#261653"
    />

    <!-- 3. Vibrant Yellow Center Stripe -->
    <path
      d="M 50 810 L 680 180 L 740 240 L 140 840 L 140 940 L 50 940 Z"
      fill="#FFD51B"
    />

    <!-- 4. Ascending Purple Arrow Stripe & Arrowhead -->
    <path
      d="M 230 940 L 350 940 L 850 440 L 790 380 Z"
      fill="#261653"
    />
    <path
      d="M 725 80 L 950 50 L 920 275 L 835 210 L 780 265 L 745 230 L 805 170 Z"
      fill="#261653"
    />

    <!-- 5. Bottom-Right Purple Bracket -->
    <path
      d="M 950 940 H 460 L 650 750 H 820 V 570 L 950 700 Z"
      fill="#261653"
    />
  </g>
</svg>
